<svg width="167" height="171" viewBox="0 0 167 171" fill="none" xmlns="http://www.w3.org/2000/svg">
<path d="M83.5 0C37.408 0 0 38.304 0 85.5C0 132.696 37.408 171 83.5 171C129.592 171 167 132.696 167 85.5C167 38.304 129.592 0 83.5 0ZM83.5 34.2C99.6155 34.2 112.725 47.6235 112.725 64.125C112.725 80.6265 99.6155 94.05 83.5 94.05C67.3845 94.05 54.275 80.6265 54.275 64.125C54.275 47.6235 67.3845 34.2 83.5 34.2ZM83.5 153.9C66.5495 153.9 46.5095 146.889 32.231 129.276C46.3425 117.99 64.128 111.15 83.5 111.15C102.872 111.15 120.658 117.99 134.769 129.276C120.491 146.889 100.451 153.9 83.5 153.9Z" fill="#6B6B6B"/>
</svg>
